<mxfile host="app.diagrams.net" agent="Mozilla/5.0 (Macintosh; Intel Mac OS X 10_15_7) AppleWebKit/537.36 (KHTML, like Gecko) Chrome/133.0.0.0 Safari/537.36" version="26.0.14">
  <diagram name="Page-1" id="sOQlYIly28T67B51S7rm">
    <mxGraphModel dx="1306" dy="835" grid="1" gridSize="10" guides="1" tooltips="1" connect="1" arrows="1" fold="1" page="1" pageScale="1" pageWidth="827" pageHeight="1169" math="0" shadow="0">
      <root>
        <mxCell id="0" />
        <mxCell id="1" parent="0" />
        <mxCell id="5y4IApb5IgS06ZWiOzlO-13" value="" style="rounded=0;whiteSpace=wrap;html=1;" vertex="1" parent="1">
          <mxGeometry y="130" width="760" height="240" as="geometry" />
        </mxCell>
        <mxCell id="5y4IApb5IgS06ZWiOzlO-7" value="&lt;font style=&quot;font-size: 17px;&quot;&gt;ETL&lt;/font&gt;&lt;div&gt;&lt;br&gt;&lt;/div&gt;&lt;div&gt;&lt;br&gt;&lt;/div&gt;&lt;div&gt;&lt;br&gt;&lt;/div&gt;&lt;div&gt;&lt;br&gt;&lt;/div&gt;&lt;div&gt;&lt;br&gt;&lt;/div&gt;&lt;div&gt;&lt;br&gt;&lt;/div&gt;&lt;div&gt;&lt;br&gt;&lt;/div&gt;&lt;div&gt;&lt;br&gt;&lt;/div&gt;&lt;div&gt;&lt;br&gt;&lt;/div&gt;&lt;div&gt;&lt;br&gt;&lt;/div&gt;" style="whiteSpace=wrap;html=1;aspect=fixed;fillColor=light-dark(#99FFCC,var(--ge-dark-color, #121212));" vertex="1" parent="1">
          <mxGeometry x="290" y="150" width="200" height="200" as="geometry" />
        </mxCell>
        <mxCell id="5y4IApb5IgS06ZWiOzlO-11" value="&lt;font style=&quot;font-size: 15px;&quot;&gt;Dagster (Orchestrator)&lt;/font&gt;&lt;div&gt;&lt;br&gt;&lt;/div&gt;&lt;div&gt;&lt;br&gt;&lt;/div&gt;&lt;div&gt;&lt;br&gt;&lt;/div&gt;&lt;div&gt;&lt;br&gt;&lt;/div&gt;" style="rounded=1;whiteSpace=wrap;html=1;fillColor=light-dark(#CCFFCC,var(--ge-dark-color, #121212));" vertex="1" parent="1">
          <mxGeometry x="300" y="200" width="180" height="120" as="geometry" />
        </mxCell>
        <mxCell id="5y4IApb5IgS06ZWiOzlO-9" value="&lt;font style=&quot;font-size: 17px;&quot;&gt;Storage&lt;/font&gt;&lt;div&gt;&lt;span style=&quot;font-size: 17px;&quot;&gt;&lt;br&gt;&lt;/span&gt;&lt;div&gt;&lt;br&gt;&lt;/div&gt;&lt;div&gt;&lt;br&gt;&lt;/div&gt;&lt;div&gt;&lt;br&gt;&lt;/div&gt;&lt;div&gt;&lt;br&gt;&lt;/div&gt;&lt;div&gt;&lt;br&gt;&lt;/div&gt;&lt;div&gt;&lt;br&gt;&lt;/div&gt;&lt;div&gt;&lt;br&gt;&lt;/div&gt;&lt;div&gt;&lt;br&gt;&lt;/div&gt;&lt;div&gt;&lt;br&gt;&lt;/div&gt;&lt;/div&gt;" style="whiteSpace=wrap;html=1;aspect=fixed;fillColor=light-dark(#66B2FF,var(--ge-dark-color, #121212));" vertex="1" parent="1">
          <mxGeometry x="540" y="150" width="200" height="200" as="geometry" />
        </mxCell>
        <mxCell id="5y4IApb5IgS06ZWiOzlO-10" style="edgeStyle=orthogonalEdgeStyle;rounded=0;orthogonalLoop=1;jettySize=auto;html=1;exitX=1;exitY=0.5;exitDx=0;exitDy=0;entryX=0;entryY=0.5;entryDx=0;entryDy=0;" edge="1" parent="1" source="5y4IApb5IgS06ZWiOzlO-7" target="5y4IApb5IgS06ZWiOzlO-9">
          <mxGeometry relative="1" as="geometry" />
        </mxCell>
        <mxCell id="5y4IApb5IgS06ZWiOzlO-8" style="edgeStyle=orthogonalEdgeStyle;rounded=0;orthogonalLoop=1;jettySize=auto;html=1;exitX=1;exitY=0.5;exitDx=0;exitDy=0;entryX=0;entryY=0.5;entryDx=0;entryDy=0;" edge="1" parent="1" source="5y4IApb5IgS06ZWiOzlO-6" target="5y4IApb5IgS06ZWiOzlO-7">
          <mxGeometry relative="1" as="geometry" />
        </mxCell>
        <mxCell id="5y4IApb5IgS06ZWiOzlO-6" value="&lt;font style=&quot;font-size: 17px;&quot;&gt;Source Data&lt;/font&gt;&lt;div&gt;&lt;br&gt;&lt;/div&gt;&lt;div&gt;&lt;br&gt;&lt;/div&gt;&lt;div&gt;&lt;br&gt;&lt;/div&gt;&lt;div&gt;&lt;br&gt;&lt;/div&gt;&lt;div&gt;&lt;br&gt;&lt;/div&gt;&lt;div&gt;&lt;br&gt;&lt;/div&gt;&lt;div&gt;&lt;br&gt;&lt;/div&gt;&lt;div&gt;&lt;br&gt;&lt;/div&gt;&lt;div&gt;&lt;br&gt;&lt;/div&gt;&lt;div&gt;&lt;br&gt;&lt;/div&gt;" style="whiteSpace=wrap;html=1;aspect=fixed;fillColor=light-dark(#FFFFCC,var(--ge-dark-color, #121212));" vertex="1" parent="1">
          <mxGeometry x="20" y="150" width="200" height="200" as="geometry" />
        </mxCell>
        <mxCell id="5y4IApb5IgS06ZWiOzlO-1" value="KNMI EDR DATA" style="rounded=1;whiteSpace=wrap;html=1;fillColor=light-dark(#FEFFEA,var(--ge-dark-color, #121212));" vertex="1" parent="1">
          <mxGeometry x="60" y="220" width="120" height="60" as="geometry" />
        </mxCell>
        <mxCell id="5y4IApb5IgS06ZWiOzlO-2" value="Python scraper" style="rounded=0;whiteSpace=wrap;html=1;fillColor=light-dark(#E8FFE8,var(--ge-dark-color, #121212));" vertex="1" parent="1">
          <mxGeometry x="330" y="250" width="120" height="60" as="geometry" />
        </mxCell>
        <mxCell id="5y4IApb5IgS06ZWiOzlO-4" value="Postgres&lt;div&gt;TimescaleDB&lt;/div&gt;" style="shape=cylinder3;whiteSpace=wrap;html=1;boundedLbl=1;backgroundOutline=1;size=15;fillColor=light-dark(#CCFFFF,var(--ge-dark-color, #121212));" vertex="1" parent="1">
          <mxGeometry x="580" y="205" width="120" height="90" as="geometry" />
        </mxCell>
      </root>
    </mxGraphModel>
  </diagram>
</mxfile>
